<?xml version="1.0" encoding="utf-8"?>
<!-- Generator: Adobe Illustrator 19.1.0, SVG Export Plug-In . SVG Version: 6.00 Build 0)  -->
<svg version="1.1" id="Layer_1" xmlns="http://www.w3.org/2000/svg" xmlns:xlink="http://www.w3.org/1999/xlink" x="0px" y="0px"
	 viewBox="0 0 233.1 157.5" style="enable-background:new 0 0 233.1 157.5;" xml:space="preserve">
<style type="text/css">
	.st0{fill:none;stroke:#231F20;stroke-width:4;stroke-miterlimit:10;}
</style>
<ellipse class="st0" cx="114.5" cy="40.9" rx="90.1" ry="22.9"/>
<path class="st0" d="M227.3,69.3c0,45.5-49.3,82.5-110.1,82.5S7.1,114.8,7.1,69.3C7.1,8.1,56.4,7.6,117.2,7.6S227.3,9.2,227.3,69.3z
	"/>
<path class="st0" d="M57.4,55.1l3.8-6.6c3.1-5.4,10-7.4,15.5-4.4l0,0c3.3,1.8,7.3,1.8,10.6,0.2l3.1-1.6c4.6-2.3,10.2-1.3,13.7,2.6
	l2.7,3c3.6,4,9.5,5,14.2,2.3l1.4-0.8c3.2-1.8,7-2,10.3-0.5l8.2,3.6c3.2,1.4,7,1.3,10.1-0.4l3.6-1.9c4-2.2,8.9-1.8,12.5,1.1l4.6,3.6"
	/>
</svg>
