<?xml version="1.0" encoding="utf-8"?>
<!-- Generator: Adobe Illustrator 19.1.0, SVG Export Plug-In . SVG Version: 6.00 Build 0)  -->
<svg version="1.1" id="Layer_1" xmlns="http://www.w3.org/2000/svg" xmlns:xlink="http://www.w3.org/1999/xlink" x="0px" y="0px"
	 viewBox="0 0 327.1 132.3" style="enable-background:new 0 0 327.1 132.3;" xml:space="preserve">
<style type="text/css">
	.st0{fill:#FFFFFF;stroke:#231F20;stroke-width:4;stroke-miterlimit:10;}
	.st1{fill:#FFFFFF;}
	.st2{fill:none;stroke:#231F20;stroke-width:4;stroke-miterlimit:10;}
</style>
<ellipse class="st0" cx="163.5" cy="65.6" rx="152.1" ry="49"/>
<g>
	<line class="st1" x1="49.1" y1="71.6" x2="279.3" y2="71.6"/>
	<path class="st2" d="M49.1,61.5c23,0,23,20.2,46,20.2c23,0,23-20.2,46-20.2c23,0,23,20.2,46,20.2c23,0,23-20.2,46-20.2
		s23,20.2,46,20.2"/>
</g>
<g>
	<line class="st1" x1="49.1" y1="52.9" x2="279.3" y2="52.9"/>
	<path class="st2" d="M49.1,42.8c23,0,23,20.2,46,20.2c23,0,23-20.2,46-20.2c23,0,23,20.2,46,20.2c23,0,23-20.2,46-20.2
		s23,20.2,46,20.2"/>
</g>
<g>
	<line class="st1" x1="48.4" y1="32" x2="278.6" y2="32"/>
	<path class="st2" d="M48.4,22c23,0,23,20.2,46,20.2c23,0,23-20.2,46-20.2c23,0,23,20.2,46,20.2c23,0,23-20.2,46-20.2
		s23,20.2,46,20.2"/>
</g>
<circle class="st0" cx="108.3" cy="85.7" r="4.7"/>
<circle class="st0" cx="185.4" cy="52.9" r="4.7"/>
<circle class="st0" cx="222.9" cy="81" r="4.7"/>
<circle class="st0" cx="113" cy="43.5" r="4.7"/>
</svg>
